<svg width="25" height="24" viewBox="0 0 25 24" fill="none" xmlns="http://www.w3.org/2000/svg">
<path d="M8.56111 19.1085C8.56111 19.2053 8.44982 19.2827 8.3095 19.2827C8.14982 19.2972 8.03853 19.2198 8.03853 19.1085C8.03853 19.0118 8.14982 18.9343 8.29014 18.9343C8.4353 18.9198 8.56111 18.9972 8.56111 19.1085ZM7.05627 18.8908C7.0224 18.9876 7.11918 19.0989 7.26434 19.1279C7.39014 19.1763 7.5353 19.1279 7.56434 19.0311C7.59337 18.9343 7.50143 18.8231 7.35627 18.7795C7.23047 18.7456 7.09014 18.794 7.05627 18.8908ZM9.19498 18.8085C9.05466 18.8424 8.95788 18.9343 8.9724 19.0456C8.98692 19.1424 9.11272 19.2053 9.25788 19.1714C9.39821 19.1376 9.49498 19.0456 9.48046 18.9489C9.46595 18.8569 9.3353 18.794 9.19498 18.8085ZM12.3789 0.266602C5.66756 0.266602 0.533691 5.36176 0.533691 12.0731C0.533691 17.4392 3.91111 22.0311 8.7353 23.6472C9.35466 23.7585 9.5724 23.3763 9.5724 23.0618C9.5724 22.7618 9.55788 21.1069 9.55788 20.0908C9.55788 20.0908 6.17079 20.8166 5.4595 18.6489C5.4595 18.6489 4.90788 17.2408 4.11434 16.8779C4.11434 16.8779 3.00627 16.1182 4.19176 16.1327C4.19176 16.1327 5.39659 16.2295 6.0595 17.3811C7.11917 19.2489 8.89498 18.7118 9.58692 18.3924C9.69821 17.6182 10.0127 17.0811 10.3611 16.7618C7.65627 16.4618 4.92724 16.0698 4.92724 11.415C4.92724 10.0843 5.29498 9.4166 6.06918 8.56499C5.94337 8.25047 5.53208 6.9537 6.19498 5.2795C7.20627 4.96499 9.53369 6.58596 9.53369 6.58596C10.5014 6.31499 11.5418 6.17467 12.5724 6.17467C13.603 6.17467 14.6434 6.31499 15.6111 6.58596C15.6111 6.58596 17.9385 4.96015 18.9498 5.2795C19.6127 6.95854 19.2014 8.25047 19.0756 8.56499C19.8498 9.42144 20.324 10.0892 20.324 11.415C20.324 16.0843 17.474 16.4569 14.7692 16.7618C15.2143 17.144 15.5918 17.8698 15.5918 19.0069C15.5918 20.6376 15.5772 22.6553 15.5772 23.0521C15.5772 23.3666 15.7998 23.7489 16.4143 23.6376C21.253 22.0311 24.5337 17.4392 24.5337 12.0731C24.5337 5.36176 19.0901 0.266602 12.3789 0.266602ZM5.23692 16.9553C5.17401 17.0037 5.18853 17.115 5.27079 17.2069C5.34821 17.2843 5.4595 17.3182 5.5224 17.2553C5.5853 17.2069 5.57079 17.0956 5.48853 17.0037C5.41111 16.9263 5.29982 16.8924 5.23692 16.9553ZM4.71434 16.5634C4.68047 16.6263 4.72885 16.7037 4.82563 16.7521C4.90305 16.8005 4.99982 16.786 5.03369 16.7182C5.06756 16.6553 5.01918 16.5779 4.9224 16.5295C4.82563 16.5005 4.74821 16.515 4.71434 16.5634ZM6.28208 18.286C6.20466 18.3489 6.23369 18.494 6.34498 18.586C6.45627 18.6972 6.59659 18.7118 6.6595 18.6343C6.7224 18.5714 6.69337 18.4263 6.59659 18.3343C6.49014 18.2231 6.34498 18.2085 6.28208 18.286ZM5.73047 17.5747C5.65305 17.6231 5.65305 17.7489 5.73047 17.8601C5.80788 17.9714 5.93853 18.0198 6.00143 17.9714C6.07885 17.9085 6.07885 17.7827 6.00143 17.6714C5.93369 17.5602 5.80788 17.5118 5.73047 17.5747Z" fill="#EEEEEE"/>
</svg>
