<svg width="32" height="33" viewBox="0 0 32 33" fill="none" xmlns="http://www.w3.org/2000/svg">
<path d="M29.7143 0.015625H2.27857C1.02143 0.015625 0 1.05134 0 2.32277V29.7085C0 30.9799 1.02143 32.0156 2.27857 32.0156H29.7143C30.9714 32.0156 32 30.9799 32 29.7085V2.32277C32 1.05134 30.9714 0.015625 29.7143 0.015625ZM9.67143 27.4442H4.92857V12.1728H9.67857V27.4442H9.67143ZM7.3 10.0871C5.77857 10.0871 4.55 8.85134 4.55 7.33705C4.55 5.82277 5.77857 4.58705 7.3 4.58705C8.81429 4.58705 10.05 5.82277 10.05 7.33705C10.05 8.85848 8.82143 10.0871 7.3 10.0871ZM27.45 27.4442H22.7071V20.0156C22.7071 18.2442 22.6714 15.9656 20.2429 15.9656C17.7714 15.9656 17.3929 17.8942 17.3929 19.8871V27.4442H12.65V12.1728H17.2V14.2585H17.2643C17.9 13.0585 19.45 11.7942 21.7571 11.7942C26.5571 11.7942 27.45 14.9585 27.45 19.0728V27.4442Z" fill="#ECECEC"/>
</svg>
