<svg width="60" height="53" viewBox="0 0 60 53" fill="none" xmlns="http://www.w3.org/2000/svg">
<rect x="1" y="1" width="58" height="50.3075" stroke="#0F24FA" stroke-width="2"/>
<path d="M10.2066 13.8146V12.1506H19.6146V13.8146H15.8866V23.3506H13.9666V13.8146H10.2066Z" fill="#0F24FA"/>
<path d="M34.337 18.5506C34.337 19.3079 34.225 19.9959 34.001 20.6146C33.777 21.2226 33.4623 21.7399 33.057 22.1666C32.6516 22.5933 32.1556 22.9239 31.569 23.1586C30.9823 23.3933 30.3316 23.5106 29.617 23.5106C28.1876 23.5106 27.0463 23.0679 26.193 22.1826C25.3396 21.2866 24.913 20.0759 24.913 18.5506V12.1506H26.833V18.5506C26.833 19.5319 27.089 20.3159 27.601 20.9026C28.113 21.4893 28.7903 21.7826 29.633 21.7826C30.4756 21.7826 31.1476 21.4893 31.649 20.9026C32.161 20.3159 32.417 19.5319 32.417 18.5506V12.1506H34.337V18.5506Z" fill="#0F24FA"/>
<path d="M39.0354 12.1506H40.9074L46.7474 20.2786L46.7154 12.1506H48.5234V23.3506H46.8114L40.8114 14.9986L40.8434 23.3506H39.0354V12.1506Z" fill="#0F24FA"/>
<path d="M15.9786 37.7826C16.5546 37.7826 17.0986 37.6599 17.6106 37.4146C18.1333 37.1586 18.5866 36.7959 18.9706 36.3266L20.2346 37.5426C19.712 38.1506 19.0666 38.6306 18.2986 38.9826C17.5413 39.3346 16.7466 39.5106 15.9146 39.5106C15.104 39.5106 14.3413 39.3613 13.6266 39.0626C12.9226 38.7639 12.3093 38.3586 11.7866 37.8466C11.2746 37.3239 10.8693 36.7106 10.5706 36.0066C10.272 35.3026 10.1226 34.5506 10.1226 33.7506C10.1226 32.9399 10.272 32.1826 10.5706 31.4786C10.8693 30.7746 11.2746 30.1666 11.7866 29.6546C12.3093 29.1319 12.9226 28.7213 13.6266 28.4226C14.3413 28.1239 15.104 27.9746 15.9146 27.9746C16.768 27.9746 17.5786 28.1506 18.3466 28.5026C19.1253 28.8546 19.7706 29.3399 20.2826 29.9586L18.9866 31.2386C18.592 30.7479 18.128 30.3693 17.5946 30.1026C17.0613 29.8253 16.5013 29.6866 15.9146 29.6866C15.3706 29.6866 14.864 29.7933 14.3946 30.0066C13.9253 30.2093 13.52 30.4919 13.1786 30.8546C12.848 31.2173 12.5813 31.6493 12.3786 32.1506C12.1866 32.6413 12.0906 33.1746 12.0906 33.7506C12.0906 34.3159 12.1866 34.8493 12.3786 35.3506C12.5813 35.8413 12.8533 36.2679 13.1946 36.6306C13.5466 36.9826 13.9626 37.2653 14.4426 37.4786C14.9226 37.6813 15.4346 37.7826 15.9786 37.7826Z" fill="#0F24FA"/>
<path d="M28.741 28.3506L24.389 39.5506H26.453L29.893 30.2866L33.365 39.5506H35.349L30.965 28.3506H28.741Z" fill="#0F24FA"/>
<path d="M42.7194 39.3506V34.9186L38.2874 28.1506H40.5114L43.7434 33.2706L47.0074 28.1506H49.1034L44.6394 34.9666V39.3506H42.7194Z" fill="#0F24FA"/>
</svg>
