<svg width="32" height="25" viewBox="0 0 32 25" fill="none" xmlns="http://www.w3.org/2000/svg">
<path d="M31.3937 8.08039C31.6375 7.88284 32 8.06765 32 8.3799V21.4118C32 23.1005 30.6562 24.4706 29 24.4706H3C1.34375 24.4706 0 23.1005 0 21.4118V8.38628C0 8.06765 0.35625 7.88922 0.60625 8.08676C2.00625 9.19559 3.8625 10.6039 10.2375 15.326C11.5563 16.3074 13.7812 18.3721 16 18.3593C18.2313 18.3784 20.5 16.2691 21.7687 15.326C28.1437 10.6039 29.9937 9.18922 31.3937 8.08039ZM16 16.3137C17.45 16.3392 19.5375 14.4529 20.5875 13.6755C28.8812 7.53873 29.5125 7.00343 31.425 5.47402C31.7875 5.18725 32 4.74118 32 4.26961V3.05882C32 1.3701 30.6562 0 29 0H3C1.34375 0 0 1.3701 0 3.05882V4.26961C0 4.74118 0.2125 5.18088 0.575 5.47402C2.4875 6.99706 3.11875 7.53873 11.4125 13.6755C12.4625 14.4529 14.55 16.3392 16 16.3137Z" fill="#ECECEC"/>
</svg>
